<svg width="60" height="61" viewBox="0 0 60 61" fill="none" xmlns="http://www.w3.org/2000/svg">
<path d="M16.9125 28.9272C16.9125 29.6659 16.9875 30.2659 17.13 30.7084C17.2875 31.1472 17.49 31.6272 17.7675 32.1484C17.856 32.2861 17.9041 32.446 17.9062 32.6097C17.9062 32.8084 17.7862 33.0109 17.5312 33.2097L16.2712 34.0497C16.12 34.1589 15.9401 34.2214 15.7537 34.2297C15.5512 34.2297 15.3525 34.1322 15.1537 33.9522C14.8842 33.6622 14.6431 33.347 14.4337 33.0109C14.2119 32.6262 14.0067 32.232 13.8187 31.8297C12.2587 33.6709 10.305 34.5934 7.95 34.5934C6.27375 34.5934 4.935 34.1097 3.96 33.1497C2.98125 32.1897 2.4825 30.9072 2.4825 29.3059C2.4825 27.6034 3.0825 26.2234 4.2975 25.1809C5.51625 24.1384 7.1325 23.6209 9.1875 23.6209C9.8625 23.6209 10.5637 23.6809 11.3025 23.7784C12.0412 23.8797 12.8025 24.0409 13.5975 24.2209V22.7584C13.5975 21.2359 13.2787 20.1747 12.66 19.5559C12.0225 18.9334 10.9425 18.6334 9.405 18.6334C8.7075 18.6334 7.99125 18.7159 7.2525 18.8959C6.51852 19.0706 5.79794 19.2974 5.09625 19.5747C4.8697 19.6772 4.63671 19.7649 4.39875 19.8372C4.29563 19.8712 4.18844 19.8914 4.08 19.8972C3.79875 19.8972 3.66 19.6947 3.66 19.2747V18.2922C3.66 17.9734 3.6975 17.7297 3.79875 17.5947C3.94986 17.4107 4.1427 17.2654 4.36125 17.1709C5.055 16.8109 5.895 16.5109 6.87375 16.2709C7.84875 16.0084 8.8875 15.8922 9.98625 15.8922C12.36 15.8922 14.0962 16.4322 15.2137 17.5122C16.3125 18.5922 16.8712 20.2347 16.8712 22.4397V28.9272H16.9087H16.9125ZM8.80875 31.9684C9.465 31.9684 10.1437 31.8484 10.8637 31.6084C11.5837 31.3684 12.2212 30.9259 12.7575 30.3259C13.0791 29.9575 13.3113 29.5199 13.4362 29.0472C13.5562 28.5634 13.6387 27.9859 13.6387 27.3034V26.4634C13.0331 26.3165 12.4196 26.2039 11.8012 26.1259C11.1795 26.0455 10.5532 26.0042 9.92625 26.0022C8.5875 26.0022 7.6125 26.2647 6.9525 26.8047C6.2925 27.3447 5.9775 28.1059 5.9775 29.1072C5.9775 30.0447 6.21375 30.7459 6.7125 31.2297C7.1925 31.7284 7.89 31.9684 8.80875 31.9684ZM24.8325 34.1322C24.4725 34.1322 24.2325 34.0722 24.075 33.9297C23.9137 33.8097 23.775 33.5322 23.655 33.1497L18.9675 17.6734C18.8763 17.4139 18.8159 17.1445 18.7875 16.8709C18.7875 16.5522 18.945 16.3722 19.2637 16.3722H21.2212C21.5962 16.3722 21.8587 16.4322 21.9975 16.5709C22.1587 16.6909 22.2787 16.9722 22.3987 17.3509L25.7512 30.6072L28.8637 17.3509C28.9612 16.9534 29.0812 16.6909 29.2425 16.5709C29.482 16.4243 29.7609 16.3549 30.0412 16.3722H31.6387C32.0137 16.3722 32.2762 16.4322 32.4337 16.5709C32.595 16.6909 32.7338 16.9722 32.8162 17.3509L35.9662 30.7684L39.4162 17.3509C39.4804 17.0606 39.6186 16.7919 39.8175 16.5709C40.05 16.4239 40.323 16.3543 40.5975 16.3722H42.4538C42.7725 16.3722 42.9525 16.5334 42.9525 16.8709C42.9525 16.9722 42.93 17.0734 42.915 17.1934C42.8826 17.3636 42.8349 17.5305 42.7725 17.6922L37.9613 33.1684C37.845 33.5697 37.7025 33.8322 37.545 33.9522C37.3185 34.097 37.0521 34.1666 36.7837 34.1509H35.07C34.6912 34.1509 34.4325 34.0909 34.2712 33.9522C34.11 33.8097 33.9713 33.5509 33.8925 33.1497L30.7987 20.2384L27.7237 33.1347C27.6262 33.5359 27.5062 33.7947 27.3487 33.9334C27.1875 34.0759 26.9062 34.1359 26.55 34.1359H24.8325V34.1322ZM50.475 34.6722C49.4394 34.6736 48.4073 34.5527 47.4 34.3122C46.4025 34.0722 45.6262 33.8097 45.105 33.5097C44.7862 33.3297 44.5687 33.1309 44.4862 32.9472C44.4102 32.7707 44.3707 32.5806 44.37 32.3884V31.3684C44.37 30.9484 44.5275 30.7459 44.8275 30.7459C44.95 30.7462 45.0716 30.7665 45.1875 30.8059C45.3075 30.8472 45.4875 30.9259 45.6862 31.0084C46.3612 31.3084 47.1037 31.5484 47.88 31.7097C48.6787 31.8672 49.455 31.9497 50.2537 31.9497C51.5137 31.9497 52.4888 31.7284 53.1675 31.2897C53.4936 31.0923 53.7615 30.812 53.944 30.4774C54.1264 30.1427 54.2169 29.7657 54.2062 29.3847C54.213 29.1274 54.1687 28.8714 54.0761 28.6313C53.9834 28.3913 53.8441 28.1719 53.6662 27.9859C53.31 27.6034 52.6312 27.2622 51.6525 26.9434L48.7575 26.0434C47.3025 25.5822 46.2225 24.8997 45.5662 23.9997C44.9238 23.1681 44.5733 22.148 44.5687 21.0972C44.5687 20.2572 44.7487 19.5147 45.105 18.8734C45.465 18.2359 45.945 17.6734 46.545 17.2309C47.145 16.7734 47.82 16.4322 48.6188 16.1922C49.4175 15.9522 50.2537 15.8509 51.1312 15.8509C51.5737 15.8509 52.0312 15.8697 52.47 15.9297C52.9275 15.9897 53.3475 16.0722 53.7675 16.1547C54.165 16.2522 54.5475 16.3497 54.9037 16.4734C55.2637 16.5934 55.5412 16.7134 55.7437 16.8334C55.9791 16.9518 56.1844 17.1224 56.3437 17.3322C56.4721 17.5274 56.5339 17.7589 56.52 17.9922V18.9334C56.52 19.3534 56.3625 19.5747 56.0625 19.5747C55.7969 19.5443 55.5396 19.4628 55.305 19.3347C54.0991 18.8001 52.7914 18.534 51.4725 18.5547C50.3363 18.5547 49.4362 18.7347 48.8175 19.1172C48.1987 19.4922 47.88 20.0772 47.88 20.8984C47.88 21.4572 48.0788 21.9372 48.48 22.3197C48.8775 22.6984 49.6162 23.0772 50.6737 23.4184L53.5088 24.3184C54.945 24.7797 55.9837 25.4209 56.6025 26.2422C57.2212 27.0634 57.5175 28.0047 57.5175 29.0472C57.5175 29.9097 57.3412 30.6859 57 31.3684C56.6468 32.0533 56.1506 32.6544 55.545 33.1309C54.9263 33.6297 54.1875 33.9934 53.3287 34.2522C52.4287 34.5334 51.4912 34.6722 50.475 34.6722Z" fill="#D6D6D6"/>
<path fill-rule="evenodd" clip-rule="evenodd" d="M54.2437 44.3997C47.6812 49.2634 38.1413 51.8472 29.94 51.8472C18.4462 51.8472 8.08875 47.5834 0.266248 40.4959C-0.352502 39.9334 0.206248 39.1722 0.941248 39.6147C9.405 44.5384 19.8412 47.5234 30.6412 47.5234C37.92 47.5234 45.9225 46.0009 53.2875 42.8772C54.3862 42.3784 55.3237 43.5972 54.2437 44.3997Z" fill="#D6D6D6"/>
<path fill-rule="evenodd" clip-rule="evenodd" d="M56.9775 41.2759C56.1412 40.1997 51.4312 40.7584 49.2975 41.0172C48.66 41.0997 48.5587 40.5372 49.1362 40.1172C52.8862 37.4734 59.055 38.2347 59.7712 39.1159C60.4912 40.0159 59.5725 46.2034 56.0587 49.1659C55.5225 49.6272 55.005 49.3909 55.245 48.7909C56.04 46.8034 57.8175 42.3409 56.9775 41.2797V41.2759Z" fill="#D6D6D6"/>
</svg>
