<svg width="40" height="61" viewBox="0 0 40 61" fill="none" xmlns="http://www.w3.org/2000/svg">
<g clip-path="url(#clip0_6_275)">
<path d="M20.4982 7.613C20.4982 5.53527 22.1826 3.85092 24.2603 3.85092H35.5465C37.6241 3.85092 39.3086 5.53523 39.3086 7.613V18.8992C39.3086 19.224 39.2674 19.5391 39.1901 19.8397C39.2674 20.1404 39.3086 20.4555 39.3086 20.7803V30.1854H44.0111V22.6613C44.0111 21.103 45.2745 19.8397 46.8326 19.8397C48.3911 19.8397 49.6541 21.103 49.6541 22.6613V30.1854H57.1785C58.7366 30.1854 60 31.4487 60 33.007C60 34.5653 58.7366 35.8286 57.1785 35.8286H49.5424C48.9878 42.6702 46.3976 48.1302 42.2921 51.9915C37.6688 56.3404 31.4015 58.401 24.7305 58.401C18.6397 58.401 12.8878 56.685 8.4084 53.0715C3.8961 49.4318 0.886661 44.034 0.0470037 37.1032C-0.434689 33.1271 2.86329 30.1854 6.39045 30.1854H7.33095V20.7803C7.33095 18.7025 9.0153 17.0182 11.093 17.0182H20.4982V7.613ZM20.4982 22.6613H12.9741V30.1854H20.4982V22.6613ZM6.39045 35.8286C6.11985 35.8286 5.90426 35.939 5.7774 36.0706C5.66498 36.1871 5.63381 36.2979 5.64915 36.4245C6.32914 42.0375 8.6886 46.0474 11.9514 48.6796C15.2472 51.3379 19.6767 52.758 24.7305 52.758C30.2663 52.758 35.05 51.0567 38.4259 47.8812C41.2931 45.1842 43.3493 41.2332 43.8776 35.8286H6.39045ZM26.1413 30.1854H33.6655V22.6613H26.1413V30.1854ZM26.1413 17.0182H33.6655V9.49403H26.1413V17.0182Z" fill="#D6D6D6"/>
</g>
<defs>
<clipPath id="clip0_6_275">
<rect width="60" height="60" fill="white" transform="translate(0 0.100922)"/>
</clipPath>
</defs>
</svg>
