<svg width="60" height="61" viewBox="0 0 60 61" fill="none" xmlns="http://www.w3.org/2000/svg">
<g clip-path="url(#clip0_6_281)">
<path d="M20.36 48.0559C20.095 47.444 19.6658 46.9175 19.12 46.5345C18.5742 46.1515 17.933 45.927 17.2675 45.8859L13.23 33.4459L12.305 30.6084C12.2625 30.6334 12.025 30.7384 11.98 30.7584C11.96 30.7834 11.9175 30.7834 11.8975 30.8034C11.836 30.8278 11.7773 30.8589 11.7225 30.8959C11.642 30.9416 11.5564 30.9777 11.4675 31.0034C11.36 31.0434 11.2725 31.0884 11.1675 31.1084C11.08 31.1334 10.9925 31.1759 10.9075 31.1984C10.8075 31.2234 10.7 31.2609 10.5925 31.2834C10.5075 31.3084 10.4225 31.3259 10.335 31.3484C10.2229 31.3761 10.1079 31.3903 9.9925 31.3909C9.905 31.4159 9.8175 31.4159 9.735 31.4334C9.665 31.4334 9.6 31.4334 9.535 31.4584H9.135C9.005 31.4584 8.8975 31.4584 8.77 31.4334C8.6825 31.4334 8.595 31.4334 8.5325 31.4084L8.12 31.3459C8.055 31.3209 7.99 31.3209 7.905 31.3034C7.69419 31.2644 7.48557 31.2143 7.28 31.1534C6.49648 30.9073 5.7692 30.5091 5.13978 29.9815C4.51038 29.454 3.9912 28.8075 3.61199 28.079C3.23278 27.3505 3.00097 26.5544 2.92985 25.7362C2.85872 24.9181 2.94968 24.0939 3.1975 23.3109C4.25 20.0259 7.755 18.1759 11.0425 19.2259L11.9025 16.4759C9.5871 15.753 7.07972 15.9756 4.92788 17.0951C2.77604 18.2146 1.15455 20.14 0.4175 22.4509C-0.301685 24.765 -0.0772517 27.2695 1.04191 29.4189C2.16106 31.5682 4.08426 33.1882 6.3925 33.9259C7.7079 34.3189 9.09178 34.428 10.4525 34.2459L14.5375 46.8334C14.3173 47.0311 14.1225 47.2553 13.9575 47.5009C13.6817 47.9007 13.4878 48.3511 13.3871 48.8262C13.2864 49.3013 13.2809 49.7917 13.3708 50.269C13.4608 50.7462 13.6445 51.2009 13.9112 51.6068C14.178 52.0126 14.5226 52.3616 14.925 52.6334C15.3789 52.9471 15.8976 53.1545 16.4426 53.2403C16.9876 53.3262 17.5449 53.2882 18.0732 53.1292C18.6015 52.9702 19.0872 52.6943 19.4944 52.322C19.9015 51.9497 20.2196 51.4905 20.425 50.9784C20.7754 50.0323 20.7486 48.9877 20.35 48.0609L20.36 48.0559ZM29.7525 1.13092C28.5511 1.14268 27.3639 1.39117 26.2586 1.86218C25.1534 2.33318 24.1519 3.01747 23.3113 3.8759C22.4708 4.73432 21.8077 5.75004 21.3601 6.86495C20.9124 7.97986 20.689 9.17208 20.7025 10.3734C20.7275 11.7234 21.07 13.0984 21.6525 14.3234L10.9525 22.1009C10.695 21.9533 10.4205 21.8374 10.135 21.7559C9.67096 21.618 9.18423 21.573 8.70277 21.6237C8.22132 21.6744 7.75462 21.8198 7.3295 22.0514C6.90438 22.283 6.52921 22.5963 6.22554 22.9734C5.92188 23.3504 5.6957 23.7837 5.56 24.2484C4.9775 26.1984 6.095 28.2384 8.05 28.8234C8.3075 28.9034 8.5675 28.9484 8.825 28.9484C9.835 29.0109 10.825 28.6734 11.55 27.9984C12.05 27.5484 12.435 26.9984 12.625 26.3034C12.8118 25.6824 12.8273 25.0225 12.67 24.3934L23.2625 16.6934L25.6675 14.9384C25.625 14.8934 25.475 14.7234 25.4325 14.6809L25.3675 14.6159C25.325 14.5709 25.28 14.5259 25.2375 14.4659C25.1706 14.4008 25.1118 14.3278 25.0625 14.2484C25.002 14.1605 24.9386 14.0747 24.8725 13.9909C24.8075 13.9259 24.765 13.8409 24.6975 13.7759C24.6351 13.6879 24.5783 13.5961 24.5275 13.5009C24.4857 13.4161 24.4355 13.3357 24.3775 13.2609C24.3186 13.1656 24.2684 13.0652 24.2275 12.9609C24.185 12.8759 24.1425 12.8109 24.12 12.7234L24.055 12.5484C24.04 12.5059 24.02 12.4434 23.9975 12.3984C23.9725 12.3134 23.935 12.2234 23.9125 12.1634C23.8725 12.0534 23.85 11.9234 23.8075 11.7959L23.745 11.5559C23.72 11.4309 23.7025 11.2809 23.68 11.1484C23.68 11.0859 23.655 11.0234 23.635 10.9359C23.6084 10.7203 23.5942 10.5032 23.5925 10.2859C23.5765 8.62826 24.2192 7.03204 25.3794 5.84794C26.5396 4.66385 28.1224 3.98874 29.78 3.97092C31.4377 3.95493 33.0339 4.59762 34.218 5.75781C35.4021 6.91799 36.0772 8.50078 36.095 10.1584L38.975 10.1334C38.94 5.12592 34.8 1.06592 29.75 1.12592L29.7525 1.13092ZM59.5225 22.7909C58.7469 20.4943 57.0926 18.5988 54.9221 17.5196C52.7515 16.4404 50.2417 16.2656 47.9425 17.0334C46.6485 17.4847 45.4673 18.2105 44.48 19.1609L33.78 11.3884C33.845 11.1059 33.865 10.8059 33.865 10.5034C33.8336 9.52841 33.4192 8.60504 32.7116 7.9335C32.0041 7.26195 31.0603 6.89634 30.085 6.91592C29.1091 6.94666 28.1847 7.36112 27.5126 8.06931C26.8404 8.7775 26.4748 9.72225 26.495 10.6984C26.5158 11.3273 26.6978 11.9404 27.0235 12.4788C27.3492 13.0172 27.8076 13.463 28.355 13.7734C28.935 14.0934 29.605 14.2859 30.31 14.2659C30.9775 14.2409 31.6225 14.0509 32.135 13.7059L42.7325 21.3984L45.1375 23.1609L45.3125 22.8609C45.3325 22.8409 45.3325 22.7984 45.3525 22.7759C45.3725 22.7084 45.415 22.6659 45.4375 22.6009C45.48 22.5159 45.5225 22.4509 45.5625 22.3659C45.634 22.2815 45.6929 22.1872 45.7375 22.0859L45.8875 21.8734C45.9525 21.7859 46.0175 21.6984 46.1025 21.6134C46.1675 21.5484 46.21 21.4884 46.2775 21.3984L46.5125 21.1609L46.705 20.9659C46.75 20.9234 46.7925 20.8809 46.855 20.8409C46.9 20.7959 46.945 20.7734 46.9875 20.7309C47.0492 20.6679 47.1221 20.617 47.2025 20.5809C47.3025 20.5159 47.4125 20.4509 47.5025 20.3859C47.5685 20.3379 47.6388 20.296 47.7125 20.2609C47.8425 20.1934 47.9475 20.1284 48.0775 20.0609C48.1425 20.0409 48.2075 19.9984 48.27 19.9784C49.0674 19.6171 49.9315 19.4266 50.8069 19.4192C51.6822 19.4118 52.5495 19.5876 53.3529 19.9353C54.1562 20.2831 54.8779 20.7951 55.4716 21.4385C56.0653 22.0818 56.5178 22.8423 56.8 23.6709C57.3263 25.2431 57.2083 26.9597 56.4717 28.4451C55.7351 29.9304 54.4401 31.0634 52.87 31.5959L53.795 34.3209C58.545 32.7534 61.12 27.5709 59.53 22.7834L59.5225 22.7909ZM54.1075 24.3409C53.78 23.4211 53.1009 22.6688 52.2192 22.2492C51.3375 21.8297 50.3253 21.7773 49.405 22.1034C49.1569 22.1953 48.9189 22.3125 48.695 22.4534C47.835 22.9884 47.235 23.8534 47.04 24.8159C46.915 25.4609 46.9325 26.1484 47.17 26.8159C47.405 27.4584 47.77 27.9734 48.265 28.3834L44.225 40.8234L43.3 43.6584C43.345 43.6584 43.58 43.7234 43.645 43.7234C43.6875 43.7234 43.71 43.7234 43.7525 43.7484C43.8225 43.7684 43.8875 43.7684 43.9525 43.7909C44.04 43.8159 44.1275 43.8334 44.2125 43.8534C44.32 43.8784 44.4275 43.9184 44.5375 43.9409C44.62 43.9659 44.7075 43.9834 44.7925 44.0259L45.0925 44.1509C45.18 44.1959 45.2675 44.2184 45.35 44.2609C45.45 44.3034 45.54 44.3684 45.65 44.4109C45.7325 44.4534 45.8 44.4959 45.8825 44.5409C45.9475 44.5659 45.99 44.6034 46.0325 44.6484C46.0775 44.6734 46.12 44.7084 46.1625 44.7309C46.2275 44.7759 46.3125 44.8184 46.3775 44.8809C46.4815 44.9485 46.5765 45.0292 46.66 45.1209C46.7225 45.1609 46.785 45.2259 46.8525 45.2709C46.96 45.3534 47.045 45.4609 47.1525 45.5709C47.2025 45.6109 47.26 45.6559 47.3025 45.7209C47.4525 45.8709 47.5775 46.0459 47.7125 46.2134C48.6972 47.5451 49.1143 49.2126 48.8725 50.851C48.6308 52.4895 47.7498 53.9654 46.4225 54.9559C45.0902 55.9419 43.4215 56.3601 41.7817 56.1188C40.1418 55.8775 38.6643 54.9964 37.6725 53.6684L35.355 55.3834C38.3675 59.4234 44.105 60.2834 48.145 57.2759C52.1825 54.2684 53.045 48.5334 50.035 44.4959C49.2062 43.4023 48.1514 42.5002 46.9425 41.8509L51.0225 29.2609C51.5791 29.2023 52.1151 29.0181 52.5902 28.7221C53.0652 28.4262 53.4669 28.0263 53.7649 27.5526C54.0629 27.0788 54.2495 26.5436 54.3106 25.9873C54.3716 25.431 54.3056 24.868 54.1175 24.3409H54.1075ZM45.5 47.3634C45.1197 46.8662 44.6168 46.4762 44.0405 46.2316C43.4643 45.9871 42.8344 45.8964 42.2125 45.9684C41.5284 46.0268 40.8773 46.2879 40.3425 46.7184C39.805 47.1259 39.4175 47.6634 39.18 48.2434H23.1075C23.1075 48.2859 23.1325 48.5434 23.1575 48.5859C23.1575 48.6309 23.1575 48.6509 23.1825 48.6934C23.1825 48.7584 23.2075 48.8234 23.2075 48.8884C23.2075 48.9734 23.225 49.0634 23.225 49.1684C23.225 49.2759 23.225 49.3834 23.25 49.4884V49.7684C23.25 49.8759 23.225 49.9834 23.225 50.0934C23.225 50.1784 23.2 50.2634 23.2 50.3684C23.175 50.4784 23.15 50.5859 23.15 50.7134C23.1325 50.8009 23.1325 50.8884 23.1125 50.9709C23.0875 51.0334 23.0875 51.0959 23.07 51.1709C23.045 51.2059 23.045 51.2709 23.025 51.3209C23 51.3959 22.9825 51.4859 22.96 51.5709C22.9175 51.6784 22.875 51.8084 22.83 51.9209C22.805 52.0009 22.7675 52.0709 22.745 52.1509C22.6845 52.2745 22.6203 52.3962 22.5525 52.5159C22.5125 52.5784 22.4925 52.6409 22.47 52.7084C22.3658 52.8943 22.2506 53.0738 22.125 53.2459C21.1604 54.5951 19.6999 55.5064 18.064 55.7796C16.4282 56.0529 14.7507 55.6658 13.4 54.7034C12.7311 54.2268 12.1627 53.6231 11.7271 52.9268C11.2916 52.2305 10.9975 51.4552 10.8617 50.6452C10.7259 49.8352 10.751 49.0063 10.9356 48.206C11.1202 47.4057 11.4606 46.6496 11.9375 45.9809L9.595 44.3059C8.19307 46.2813 7.63208 48.7321 8.03516 51.1206C8.43824 53.5091 9.77246 55.6401 11.745 57.0459C13.7197 58.4484 16.1704 59.0097 18.5586 58.6066C20.9469 58.2034 23.0775 56.8689 24.4825 54.8959C25.2775 53.7834 25.7925 52.4709 26.0525 51.1409H39.2875C39.516 51.6508 39.8571 52.1023 40.2851 52.4614C40.7132 52.8205 41.2171 53.078 41.7589 53.2144C42.3007 53.3508 42.8664 53.3627 43.4135 53.2491C43.9606 53.1354 44.4748 52.8993 44.9175 52.5584C46.4425 51.2884 46.7425 48.9684 45.4975 47.3584L45.5 47.3634Z" fill="#D6D6D6"/>
</g>
<defs>
<clipPath id="clip0_6_281">
<rect width="60" height="60" fill="white" transform="translate(0 0.100922)"/>
</clipPath>
</defs>
</svg>
