<svg width="128" height="128" viewBox="0 0 128 128" fill="none" xmlns="http://www.w3.org/2000/svg">
<path d="M5 83.7146C9.59625 57.9049 22.0592 45 42.3888 45C47.1618 45 51.4045 45.8839 55.1169 47.6517C59.006 49.2427 63.3371 51.6292 68.1101 54.8112C72.3528 57.4629 75.8 59.4075 78.4517 60.6449C81.2801 61.8824 84.197 62.5011 87.2022 62.5011C91.7985 62.5011 95.6876 60.9985 98.8697 57.9933C102.228 54.8112 104.261 50.5686 104.969 45.2652H123C118.581 71.0749 106.029 83.9798 85.3461 83.9798C80.7498 83.9798 76.6839 83.1843 73.1483 81.5933C69.6127 80.0023 65.2817 77.6157 60.1551 74.4337C55.9124 71.782 52.4652 69.8375 49.8135 68.6C47.1618 67.1858 44.1566 66.4786 40.7978 66.4786C36.2015 66.4786 32.224 68.0697 28.8652 71.2517C25.5064 74.2569 23.4734 78.4112 22.7663 83.7146H5Z" fill="white"/>
</svg>
