<svg width="60" height="61" viewBox="0 0 60 61" fill="none" xmlns="http://www.w3.org/2000/svg">
<path d="M35.3888 18.729L31.125 10.5709C30.9075 10.164 30.4856 9.8903 30 9.8903C29.5144 9.8903 29.0925 10.1622 28.8788 10.5634L28.875 10.5709L10.1531 44.1222L35.3888 18.729ZM50.3475 47.3547L45.075 14.5515C44.9775 13.9422 44.4544 13.4809 43.8244 13.4809C43.47 13.4809 43.1513 13.6253 42.9206 13.8597L9.65063 47.3565L28.0575 57.729C28.5938 58.0347 29.235 58.2165 29.9175 58.2165C30.6 58.2165 31.2431 58.0365 31.7963 57.7197L31.7775 57.729L50.3475 47.3547ZM10.9969 38.7053L16.5375 3.0653C16.6331 2.4503 17.1581 1.98342 17.7938 1.98342C18.2775 1.98342 18.6994 2.25342 18.9131 2.6528L18.9169 2.6603L24.8756 13.839L10.9969 38.7053Z" fill="#D6D6D6"/>
</svg>
