<svg width="60" height="61" viewBox="0 0 60 61" fill="none" xmlns="http://www.w3.org/2000/svg">
<g clip-path="url(#clip0_6_299)">
<path d="M30.4781 6.04842C19.7363 5.80467 10.2038 12.9128 7.39126 23.2853C7.25439 23.3153 7.51876 23.2365 7.39126 23.2853C-2.29686 29.6622 -2.41311 43.5578 6.77626 50.6397L6.78564 50.6209L6.76689 50.6997C9.70689 52.9159 13.2806 54.099 16.9631 54.0878H29.8931L29.9719 54.1553H42.9506C59.67 54.2922 66.3881 32.6509 52.5413 23.2853C51.3506 18.8809 48.8981 14.9265 45.4913 11.9078L45.3844 12.0147L45.3938 11.8872C41.2631 8.24405 35.9794 6.17405 30.4819 6.04655L30.4781 6.04842ZM29.58 16.419C32.685 16.3122 35.8781 17.3378 38.2913 19.2897C41.3081 21.8097 43.0275 25.5597 42.9488 29.4859V30.7853C51.7763 30.609 51.7763 43.9403 42.9488 43.764H29.97L29.9513 43.7828V43.6853H16.9631C16.0444 43.6853 15.1369 43.4903 14.2969 43.1097C10.1663 41.244 9.18001 35.814 12.3825 32.6022C15.5963 29.3997 21.015 30.3859 22.89 34.5165L30.42 26.9865C27.9206 23.724 24.3075 21.489 20.2744 20.6978C20.3231 20.679 20.3719 20.6397 20.4113 20.649C22.7738 18.0522 26.085 16.5278 29.5913 16.4209L29.58 16.419Z" fill="#D6D6D6"/>
</g>
<defs>
<clipPath id="clip0_6_299">
<rect width="60" height="60" fill="white" transform="translate(0 0.100922)"/>
</clipPath>
</defs>
</svg>
