<svg width="60" height="61" viewBox="0 0 60 61" fill="none" xmlns="http://www.w3.org/2000/svg">
<path d="M16.6973 2.99165C17.6955 1.7939 19.4756 1.63207 20.6733 2.6302C23.5263 5.00765 24.6343 7.81441 24.0221 10.5838C23.5009 12.9416 21.8585 14.6229 20.5781 15.5171C19.7781 16.203 19.4446 16.7413 19.3068 17.0765C19.1752 17.3963 19.1781 17.6309 19.223 17.8342C19.3405 18.3654 19.8484 18.999 20.4321 19.3882C21.7294 20.253 22.0799 22.0058 21.2151 23.303C20.3502 24.6003 18.5975 24.9508 17.3002 24.086C16.0019 23.2204 14.2514 21.5015 13.7101 19.0529C13.0978 16.2836 14.2058 13.4768 17.0588 11.0993L17.1746 11.0027L17.3001 10.9191C17.8838 10.53 18.3917 9.89641 18.5091 9.36515C18.5541 9.16194 18.5569 8.9273 18.4254 8.60742C18.2822 8.25924 17.9279 7.69182 17.0588 6.96762C15.861 5.96949 15.6992 4.1894 16.6973 2.99165ZM34.209 10.5197C35.2071 11.7175 35.0453 13.4976 33.8476 14.4957C32.9785 15.2199 32.6242 15.7873 32.481 16.1355C32.3494 16.4554 32.3523 16.69 32.3972 16.8932C32.5146 17.4245 33.0226 18.0581 33.6062 18.4472C34.9035 19.312 35.2541 21.0647 34.3892 22.362C33.5244 23.6593 31.7716 24.0098 30.4744 23.145C29.176 22.2794 27.4255 20.5604 26.8842 18.1119C26.2721 15.3425 27.3801 12.5357 30.233 10.1583C31.4308 9.16014 33.2109 9.32199 34.209 10.5197ZM0.779439 28.5805C1.09362 27.3237 2.22278 26.4421 3.51818 26.4421H46.8608C48.1564 26.4421 49.2855 27.3237 49.5998 28.5805C50.0078 30.2135 50.1116 32.297 49.8904 34.6289H56.802C58.3613 34.6289 59.625 35.8928 59.625 37.4519C59.625 40.2225 59.4566 44.7102 56.6363 48.4699C53.859 52.1719 49.0241 54.552 41.2886 54.8067C40.278 56.0742 39.165 57.327 37.9414 58.5507C37.412 59.0802 36.6939 59.3775 35.9452 59.3775H14.4339C13.6852 59.3775 12.9671 59.0802 12.4377 58.5507C7.00455 53.1173 3.74974 47.1135 2.01604 41.7814C0.312118 36.5412 0.00053975 31.6961 0.779439 28.5805ZM34.7522 53.7315C35.81 52.6103 36.7635 51.468 37.6208 50.3187C41.1188 45.6282 43.0136 40.8199 43.8413 36.8726C44.2369 34.9859 44.3753 33.3644 44.3565 32.0882H6.02266C5.99393 34.0611 6.34107 36.8239 7.38541 40.0358C8.78041 44.3258 11.3557 49.2042 15.6269 53.7315H34.7522ZM45.3506 48.717C49.1134 47.985 51.0533 46.503 52.1198 45.0818C53.1705 43.6812 53.6411 42.0109 53.8414 40.275H48.8183C48.0739 42.9405 46.9474 45.8097 45.3506 48.717Z" fill="#D6D6D6"/>
</svg>
