<svg width="60" height="61" viewBox="0 0 60 61" fill="none" xmlns="http://www.w3.org/2000/svg">
<g clip-path="url(#clip0_6_263)">
<path fill-rule="evenodd" clip-rule="evenodd" d="M45.984 55.3973C40.749 55.3973 37.365 52.9015 35.715 49.6375L40.305 46.9789C41.514 48.9529 43.083 50.4022 45.864 50.4022C48.198 50.4022 49.689 49.2344 49.689 47.6234C49.689 45.1994 46.455 44.2523 44.172 43.2743C40.104 41.5433 37.404 39.3682 37.404 34.7752C37.404 30.5482 40.626 27.3265 45.663 27.3265C49.245 27.3265 51.825 28.5743 53.676 31.8353L49.287 34.6551C48.321 32.9241 47.274 32.2396 45.663 32.2396C44.01 32.2396 42.963 33.2871 42.963 34.6551C42.963 36.3471 44.01 37.0315 46.428 38.0785C51.495 40.2505 55.329 41.9568 55.329 47.5428C55.329 52.6188 51.342 55.3973 45.984 55.3973ZM33 46.8983C33 52.7393 29.403 55.8265 24.408 55.8265C19.896 55.8265 17.193 54.1009 15.864 51.1009H15.819H15.798H15.786L20.373 47.8944C21.258 49.4634 22.056 50.5765 23.988 50.5765C25.842 50.5765 27 49.6376 27 46.8206V27.1009H33V46.8983ZM0 60.1009H60V0.100922H0V60.1009Z" fill="#D6D6D6"/>
</g>
<defs>
<clipPath id="clip0_6_263">
<rect width="60" height="60" fill="white" transform="translate(0 0.100922)"/>
</clipPath>
</defs>
</svg>
