<svg width="60" height="61" viewBox="0 0 60 61" fill="none" xmlns="http://www.w3.org/2000/svg">
<path fill-rule="evenodd" clip-rule="evenodd" d="M4.6875 7.60092C4.6875 6.04763 5.94671 4.78842 7.5 4.78842H52.5C53.6374 4.78842 54.663 5.47366 55.0984 6.52463C55.5337 7.57557 55.293 8.78528 54.4886 9.58966L33.9775 30.1009L54.4886 50.6123C55.293 51.4167 55.5337 52.6264 55.0984 53.6772C54.663 54.7283 53.6374 55.4134 52.5 55.4134H7.5C5.94671 55.4134 4.6875 54.1542 4.6875 52.6009V7.60092ZM10.3125 10.4134V49.7884H45.7099L28.0113 32.0897C26.9129 30.9913 26.9129 29.2105 28.0113 28.1122L45.7099 10.4134H10.3125Z" fill="#D6D6D6"/>
</svg>
