<svg width="60" height="61" viewBox="0 0 60 61" fill="none" xmlns="http://www.w3.org/2000/svg">
<path d="M29.6644 43.5728C29.6644 43.5728 29.6644 24.1459 30.3094 24.1478C30.8081 24.1478 31.4569 49.2072 31.4569 49.2072C30.5644 49.1022 29.6644 45.084 29.6644 43.5728ZM42.1669 24.3728C40.4438 16.8428 36.6694 10.3684 31.4644 5.37155L31.4513 5.3603C30.8175 4.3928 30.2381 3.2828 29.7731 2.1128L29.7281 1.9853C29.73 2.0228 29.73 2.0678 29.73 2.1128C29.73 3.17217 29.2556 4.11905 28.5075 4.75467L28.5019 4.75842C21.8006 10.4472 17.5369 18.8303 17.3963 28.2109V28.2353C17.3944 28.3515 17.3944 28.4884 17.3944 28.6253C17.3944 37.9197 21.8663 46.1697 28.7756 51.3409L28.8488 51.3934L29.0119 51.5116C29.3131 53.7416 29.5706 55.9766 29.7844 58.2166H30.9113C31.2225 55.4209 31.6425 52.9741 32.1919 50.5741L32.1056 51.0222C32.8481 50.5065 33.4969 49.9722 34.1025 49.3928L34.0969 49.3984C39.3488 44.529 42.6263 37.5915 42.6263 29.8909C42.6263 29.7765 42.6263 29.664 42.6244 29.5497V29.5665C42.6188 27.7272 42.4519 25.929 42.135 24.1834L42.1631 24.369L42.1669 24.3728Z" fill="#D6D6D6"/>
</svg>
