<svg width="60" height="61" viewBox="0 0 60 61" fill="none" xmlns="http://www.w3.org/2000/svg">
<g clip-path="url(#clip0_6_290)">
<path d="M18 18.1009L19.6214 16.9299C19.1134 16.2267 18.2101 15.931 17.3847 16.1979C16.5592 16.4648 16 17.2334 16 18.1009H18ZM30 56.1009C15.6406 56.1009 4 44.4605 4 30.1009H0C0 46.6693 13.4314 60.1009 30 60.1009V56.1009ZM56 30.1009C56 44.4605 44.3596 56.1009 30 56.1009V60.1009C46.5684 60.1009 60 46.6693 60 30.1009H56ZM30 4.10092C44.3596 4.10092 56 15.7415 56 30.1009H60C60 13.5324 46.5684 0.100922 30 0.100922V4.10092ZM30 0.100922C13.4314 0.100922 0 13.5324 0 30.1009H4C4 15.7415 15.6406 4.10092 30 4.10092V0.100922ZM20 48.1009V18.1009H16V48.1009H20ZM16.3786 19.2719L42.3788 55.2717L45.6212 52.9301L19.6214 16.9299L16.3786 19.2719ZM40 16.1009V40.1009H44V16.1009H40Z" fill="#D6D6D6"/>
</g>
<defs>
<clipPath id="clip0_6_290">
<rect width="60" height="60" fill="white" transform="translate(0 0.100922)"/>
</clipPath>
</defs>
</svg>
