<svg width="60" height="61" viewBox="0 0 60 61" fill="none" xmlns="http://www.w3.org/2000/svg">
<path d="M45.5531 18.7178C45.5344 19.0084 45.3994 19.2653 45.195 19.4434L45.1931 19.4453C44.9475 19.7134 44.6194 19.9009 44.2481 19.9665L44.2387 19.9684C44.1862 19.9759 44.1244 19.9815 44.0625 19.9815C44.0606 19.9815 44.0569 19.9815 44.055 19.9815C43.47 19.9815 42.9675 19.6272 42.7537 19.119L42.75 19.1097C42.6937 18.6953 43.3687 18.3822 44.0644 18.2847C44.76 18.1872 45.4969 18.3053 45.5531 18.7178ZM26.9719 19.6815C26.745 20.2647 26.1881 20.6715 25.5356 20.6715C25.5281 20.6715 25.5225 20.6715 25.515 20.6715H25.5169C25.4494 20.6715 25.3856 20.6659 25.32 20.6584H25.3275C24.8381 20.5703 24.4219 20.3003 24.1462 19.9234L24.1425 19.9178C23.9887 19.7415 23.895 19.5072 23.895 19.254V19.2522C23.9175 19.1078 23.9981 18.984 24.1106 18.9053L24.1125 18.9034C24.3975 18.7459 24.7387 18.654 25.1025 18.654C25.2581 18.654 25.41 18.6709 25.5562 18.7028L25.5431 18.7009C26.2837 18.804 27.0487 19.1547 26.9756 19.6815H26.9719ZM47.6306 34.0122L47.43 33.7609L47.3475 33.6578C48.2044 32.0715 48.7068 30.1834 48.7068 28.1809C48.7068 27.2659 48.6019 26.3772 48.4031 25.5222L48.4181 25.6009C48.2868 24.7515 48.21 23.7709 48.21 22.7734C48.21 22.7603 48.21 22.7472 48.21 22.734C48.2531 21.7947 48.3525 20.9172 48.5062 20.0565L48.4875 20.1803C48.6544 19.3103 48.75 18.309 48.75 17.2853C48.75 17.1897 48.75 17.0959 48.7481 17.0022V17.0172C48.7706 16.9253 48.7837 16.8222 48.7837 16.7134C48.7837 16.6628 48.78 16.614 48.7762 16.5653V16.5709C48.0262 13.6084 46.6181 11.0415 44.7112 8.93404L44.7244 8.94904C43.0162 6.94654 40.9162 5.33217 38.5368 4.21842L38.4244 4.17154C39.7294 3.89217 41.2294 3.73279 42.7668 3.73279C42.9075 3.73279 43.0481 3.73467 43.1887 3.73654H43.1681C43.2525 3.73467 43.35 3.73279 43.4494 3.73279C47.9081 3.73279 51.8793 5.81217 54.4481 9.05404L54.4706 9.08404C54.5231 9.15154 54.5756 9.22842 54.6206 9.30904L54.6262 9.31842C56.3212 12.4947 53.9794 24.0222 47.6287 34.0159L47.6306 34.0122ZM47.0944 17.5797C47.0644 18.4328 46.9743 19.2409 46.8318 20.0303L46.8469 19.9272C46.7006 20.724 46.5956 21.6728 46.5525 22.6365L46.5506 22.6834C46.5506 22.7153 46.5506 22.7509 46.5506 22.7884C46.5506 23.8515 46.6294 24.8959 46.7831 25.9159L46.7681 25.8015C46.9275 26.5084 47.0194 27.3184 47.0194 28.1528C47.0194 29.5834 46.7494 30.9522 46.2562 32.2065L46.2825 32.1315C46.14 31.8859 45.9918 31.5897 45.8625 31.2822L45.8419 31.2278C45.7181 30.9297 45.45 30.4478 45.0806 29.784C43.6387 27.1965 40.26 21.1384 41.9887 18.6672C42.8775 17.3959 45.1312 17.3415 47.0925 17.5815L47.0944 17.5797ZM45.7612 39.3015C45.6656 37.3534 46.3912 37.149 47.16 36.9334C47.2662 36.9047 47.3718 36.8728 47.4768 36.8378C47.5706 36.9203 47.6737 37.0009 47.7806 37.0722L47.79 37.0778C48.9525 37.5897 50.3062 37.8859 51.7312 37.8859C52.8412 37.8859 53.9081 37.7059 54.9056 37.3722L54.8344 37.3928C54.1894 37.9422 53.4543 38.4128 52.6593 38.7765L52.6012 38.8009C51.3937 39.2959 49.9931 39.6053 48.5269 39.6522H48.5081C48.285 39.6859 48.0281 39.7065 47.7675 39.7065C47.0437 39.7065 46.3537 39.5565 45.7294 39.2865L45.7631 39.2997L45.7612 39.3015ZM43.6744 43.1003C43.635 43.5147 43.59 43.9815 43.53 44.4972L43.1887 45.5247C43.1625 45.5997 43.1475 45.6859 43.1456 45.7759C43.1475 45.8265 43.1475 45.8847 43.1475 45.9428C43.1475 46.6084 43.0481 47.2534 42.8643 47.859L42.8756 47.8122C42.6581 48.5415 42.5081 49.3872 42.4575 50.259L42.4556 50.289C42.3581 53.4465 39.915 56.0022 36.8156 56.2778L36.7912 56.2797C33.24 57.0409 32.61 55.1153 32.055 53.4165C31.9987 53.239 31.9387 53.0622 31.875 52.8859C31.575 51.6634 31.4025 50.259 31.4025 48.8153C31.4025 48.1403 31.44 47.4747 31.5131 46.8184L31.5056 46.899C31.5168 46.659 31.5225 46.3759 31.5225 46.0928C31.5225 44.169 31.2337 42.3128 30.6956 40.5653L30.7312 40.6984C30.7412 40.0109 30.7562 39.3147 30.7762 38.6097C30.7762 38.604 30.7762 38.5947 30.7762 38.5872C30.7762 38.5009 30.7631 38.4184 30.7387 38.3397L30.7406 38.3453C30.7144 38.1578 30.6787 37.9928 30.6319 37.8334L30.6375 37.8578C30.3731 36.8809 29.7075 36.0934 28.83 35.6753L28.8094 35.6659C28.4794 35.5009 28.0894 35.4034 27.675 35.4034C27.48 35.4034 27.2906 35.424 27.1087 35.4653L27.1256 35.4615C27.3656 34.5803 27.6131 33.8603 27.8981 33.159L27.8493 33.2959L27.9731 32.964C28.1119 32.589 28.2862 32.2009 28.4719 31.7903C29.4956 29.6828 30.0937 27.2059 30.0937 24.5884C30.0937 22.8297 29.8237 21.1347 29.3231 19.5409L29.355 19.659C29.0119 17.5815 27.2269 16.0159 25.0781 16.0159C24.7406 16.0159 24.4106 16.0553 24.0956 16.1284L24.1256 16.1228C22.6331 16.3178 21.2831 16.7565 20.055 17.4015L20.1206 17.3697C19.9656 17.4484 19.8125 17.5297 19.6612 17.6134C19.8319 13.5878 21.3412 9.94467 23.7506 7.08529L23.7281 7.11154C23.9494 6.88842 24.1819 6.67654 24.4219 6.47779L24.4387 6.46467C24.5681 6.43842 24.6825 6.38592 24.78 6.31279L24.7781 6.31467C26.4525 5.08842 28.5543 4.35154 30.8287 4.35154C31.0106 4.35154 31.1906 4.35529 31.3687 4.36467L31.3443 4.36279C32.3306 4.37779 33.2831 4.44529 34.2206 4.56529L34.095 4.55217C37.9256 5.28904 41.1956 7.29529 43.53 10.1078L43.5506 10.134C44.9531 11.7634 46.0894 13.6722 46.8619 15.7553L46.9031 15.8847C46.4212 15.7553 45.8681 15.6803 45.2981 15.6803C43.455 15.6803 41.7956 16.4603 40.6294 17.7072L40.6256 17.7109C38.3006 21.0353 41.8987 27.489 43.6275 30.5903C43.9444 31.1584 44.2181 31.6497 44.3044 31.8578C44.7919 32.9847 45.405 33.954 46.1418 34.8147L46.1287 34.7997C46.2919 35.004 46.4493 35.2009 46.5712 35.3734C45.6319 35.6434 43.9444 36.2697 44.0981 39.3972C44.07 39.7628 43.9987 40.4434 43.9031 41.3059C43.8019 41.8103 43.7194 42.4253 43.6725 43.0497L43.6687 43.1022L43.6744 43.1003ZM26.4206 32.3865L26.2969 32.7165C26.04 33.3315 25.7737 34.1134 25.5525 34.914L25.5169 35.0659C23.8425 35.0415 22.3387 34.3253 21.2775 33.189L21.2737 33.1853C20.0887 31.9347 19.3612 30.2415 19.3612 28.3778C19.3612 28.0065 19.3894 27.6428 19.4456 27.2865L19.44 27.3259C19.6219 25.9759 19.7269 24.4178 19.7269 22.8334C19.7269 21.8922 19.6894 20.9603 19.6181 20.0378L19.6256 20.1597C19.6144 19.959 19.6031 19.7828 19.5975 19.644C21.1068 18.4984 23.0175 17.8065 25.0893 17.8065C25.3369 17.8065 25.5806 17.8159 25.8225 17.8347L25.7906 17.8328C26.8294 18.0747 27.6112 18.9353 27.735 19.9947L27.7369 20.0059C28.1831 21.3709 28.44 22.9422 28.44 24.5715C28.44 26.9453 27.8944 29.1915 26.9231 31.194L26.9625 31.104C26.7656 31.5409 26.58 31.9534 26.4206 32.3828V32.3865ZM21.5137 41.7315C21.1294 41.634 20.7919 41.4915 20.4844 41.3059L20.5012 41.3153C20.8237 41.1784 21.2044 41.064 21.5981 40.9909L21.6337 40.9853C24.6412 40.3665 25.1044 39.9297 26.1187 38.6415C26.3512 38.3472 26.6137 38.0115 26.9794 37.6047C27.0544 37.5203 27.1143 37.419 27.15 37.3065L27.1519 37.3009C27.5512 36.9465 27.7894 37.044 28.1756 37.2034C28.6012 37.4378 28.9162 37.8334 29.0381 38.304L29.04 38.3172C29.0831 38.439 29.1094 38.5778 29.1094 38.724C29.1094 38.9584 29.0437 39.1778 28.9312 39.3634L28.935 39.3578C27.7256 41.0115 25.7925 42.0747 23.6119 42.0747C22.8619 42.0747 22.14 41.949 21.4669 41.7165L21.5137 41.7315ZM7.4381 29.8122C6.21748 26.0903 5.22373 21.6747 4.63685 17.1297L4.59748 16.7565C4.4831 16.1528 4.41935 15.4572 4.41935 14.7484C4.41935 11.3622 5.89872 8.32279 8.24622 6.24154L8.25747 6.23217C12.5606 3.18904 19.5975 4.96467 22.5694 5.92654L22.5469 5.94904C19.6687 9.45904 17.9231 13.9965 17.9231 18.939C17.9231 19.1078 17.925 19.2765 17.9287 19.4453V19.4209C17.9287 19.614 17.9437 19.8878 17.9662 20.2628C18.0281 21.0315 18.0637 21.9278 18.0637 22.8334C18.0637 24.3372 17.9662 25.8184 17.775 27.2715L17.7937 27.1009C17.7319 27.4872 17.6981 27.9334 17.6981 28.3872C17.6981 30.6953 18.6019 32.7934 20.0775 34.344L20.0737 34.3403C20.2625 34.5378 20.4594 34.7234 20.6644 34.8972C19.8525 35.7672 18.0862 37.6909 16.2075 39.9522C14.8781 41.5515 13.9594 41.244 13.6575 41.1447C12.3731 40.4547 11.3662 39.384 10.7737 38.0865L10.7569 38.0453C9.47435 35.6978 8.3456 32.9678 7.5131 30.1103L7.43998 29.8159L7.4381 29.8122ZM57.0844 36.4815C57.0487 36.3747 57.0037 36.2828 56.9493 36.1984L56.9531 36.204C56.6269 35.5872 55.8356 35.4034 54.5925 35.6603C50.7187 36.459 49.2187 35.9678 48.675 35.6153C51.7068 31.0178 54.1462 25.6928 55.7081 20.004L55.8 19.6122C56.4356 17.1503 57.6693 11.3565 56.0869 8.52529C55.9762 8.31529 55.8581 8.13529 55.7269 7.96654L55.7325 7.97404C52.8019 4.30842 48.33 1.98154 43.3144 1.98154C43.1719 1.98154 43.0294 1.98342 42.8887 1.98717H42.9094C42.8306 1.98529 42.7387 1.98529 42.645 1.98529C40.1287 1.98529 37.7081 2.39779 35.4487 3.15717L35.6081 3.11029C35.2068 3.03529 34.8037 2.97154 34.3987 2.91904C33.4837 2.74467 32.4244 2.63592 31.3406 2.61904H31.3256C31.17 2.61154 30.9881 2.60779 30.8044 2.60779C28.3387 2.60779 26.0456 3.34654 24.135 4.61592L24.18 4.58779C22.1719 3.83592 12.96 0.732794 7.2581 4.77154C4.46623 7.15279 2.70935 10.6722 2.70935 14.604C2.70935 15.3634 2.77498 16.1078 2.9006 16.8315L2.88935 16.7547C3.51748 21.8134 4.53748 26.3659 5.94935 30.744L5.80123 30.2115C6.7256 33.429 7.86935 36.2134 9.27373 38.8365L9.15935 38.604C9.97123 40.449 11.3756 41.9115 13.1269 42.7759L13.1756 42.7984C13.4906 42.8903 13.8525 42.9447 14.2275 42.9447C15.6187 42.9447 16.8375 42.2115 17.52 41.109L17.5294 41.0922C19.4062 38.8347 21.255 36.8134 22.0856 35.9209C23.0269 36.444 24.1425 36.7665 25.3312 36.804H25.3425L25.3444 36.8134C25.1469 37.0484 24.9537 37.2872 24.765 37.5297C23.97 38.5384 23.805 38.7465 21.2494 39.2734C20.5219 39.4234 18.5906 39.8209 18.5625 41.1747C18.5625 41.1822 18.5625 41.1897 18.5625 41.199C18.5625 41.4747 18.6431 41.7315 18.7819 41.9472L18.7781 41.9415C19.3631 42.6822 20.1862 43.2128 21.1294 43.419L21.1575 43.4247C21.9056 43.6684 22.7681 43.809 23.6606 43.809C25.7231 43.809 27.6094 43.0628 29.0681 41.8253L29.0569 41.8347C29.0119 42.6184 28.9875 43.5372 28.9875 44.4615C28.9875 47.7484 29.3081 50.9622 29.9175 54.0709L29.8669 53.7578C30.5831 56.3322 32.8969 58.1959 35.6494 58.2203H35.6531C36.345 58.2147 37.0144 58.134 37.6593 57.9878L37.5975 57.999C41.1956 57.6784 44.0306 54.8022 44.2856 51.2134L44.2875 51.1909C44.64 49.1509 45.2287 44.454 45.5494 41.5815C45.5644 41.4597 45.6131 41.3509 45.6843 41.2609L45.6825 41.2628C45.6844 41.2609 45.8456 41.1522 46.6837 41.334L46.7868 41.3509L47.3812 41.4034L47.4169 41.4053C47.595 41.4128 47.805 41.4184 48.015 41.4184C49.935 41.4184 51.7687 41.0434 53.4431 40.3609L53.3475 40.3947C54.8568 39.6953 57.5775 37.9759 57.0844 36.4815Z" fill="#D6D6D6"/>
</svg>
