<svg width="60" height="61" viewBox="0 0 60 61" fill="none" xmlns="http://www.w3.org/2000/svg">
<path d="M48.1242 21.279C47.525 21.0744 46.9215 20.8837 46.3137 20.7072C46.4144 20.297 46.5074 19.8845 46.5926 19.4697C47.9637 12.8017 47.0672 7.42983 44.0074 5.66147C41.0777 3.96459 36.273 5.73295 31.4262 9.96107C30.9496 10.3783 30.4828 10.808 30.0258 11.2501C29.7211 10.9564 29.4086 10.6689 29.0883 10.3876C24.0082 5.86654 18.9164 3.96225 15.8602 5.73647C12.9305 7.43686 12.0598 12.4865 13.2937 18.8064C13.4172 19.4314 13.5559 20.0537 13.7098 20.6732C12.9891 20.8783 12.293 21.0974 11.6273 21.3294C5.67891 23.4095 1.875 26.6708 1.875 30.0529C1.875 33.5474 5.95781 37.0513 12.1605 39.1759C12.6637 39.347 13.1715 39.506 13.684 39.6529C13.5176 40.3162 13.3703 40.9869 13.2422 41.665C12.0703 47.8759 12.9844 52.806 15.9082 54.4958C18.9281 56.2408 23.9941 54.4478 28.9324 50.1236C29.323 49.7814 29.7137 49.4201 30.1043 49.0396C30.598 49.5169 31.1059 49.9802 31.6277 50.4294C36.409 54.5521 41.1305 56.2173 44.0496 54.5228C47.0672 52.772 48.048 47.4751 46.7742 41.031C46.6766 40.5388 46.5641 40.0365 46.4367 39.524C46.793 39.4185 47.1418 39.3095 47.4832 39.197C53.9285 37.056 58.1273 33.5943 58.1273 30.0564C58.125 26.6579 54.1992 23.3755 48.1242 21.279ZM33.007 11.7775C37.159 8.15522 41.0402 6.72553 42.8098 7.7474C44.693 8.83608 45.4254 13.2259 44.2418 18.9833C44.1637 19.3583 44.0793 19.7322 43.9887 20.1048C41.5109 19.5412 38.9983 19.1435 36.4676 18.9142C35.0186 16.8269 33.4302 14.84 31.7133 12.9669C32.1336 12.5591 32.5641 12.1626 33.0047 11.7775H33.007ZM18.484 32.9427C18.9926 33.9271 19.5242 34.8994 20.0789 35.8595C20.6437 36.8392 21.2324 37.8044 21.8449 38.7552C20.1036 38.5659 18.3732 38.287 16.6605 37.9197C17.1574 36.3119 17.7691 34.6419 18.484 32.9427ZM18.484 27.279C17.7809 25.6162 17.1855 23.9802 16.6969 22.4005C18.3023 22.0408 20.0133 21.7466 21.7969 21.524C21.1992 22.4568 20.6242 23.4033 20.0719 24.3634C19.5195 25.3236 18.9891 26.2955 18.4805 27.279H18.484ZM19.7613 30.1115C20.502 28.5669 21.2996 27.0521 22.1543 25.5669C23.0082 24.0826 23.9172 22.6322 24.8812 21.2158C26.5547 21.0892 28.2703 21.0224 30.0035 21.0224C31.7367 21.0224 33.4629 21.0892 35.1352 21.2169C36.0891 22.6302 36.9926 24.0755 37.8457 25.5529C38.6988 27.0302 39.507 28.538 40.2703 30.0763C39.5172 31.6263 38.7109 33.1474 37.8516 34.6396C36.9992 36.124 36.1008 37.5787 35.1562 39.0037C33.4863 39.1208 31.7578 39.1853 30 39.1853C28.2422 39.1853 26.5465 39.1302 24.907 39.0236C23.9359 37.6025 23.0195 36.1458 22.1578 34.6537C21.2961 33.1615 20.4961 31.6474 19.7578 30.1115H19.7613ZM39.9316 35.8431C40.498 34.8603 41.0418 33.8646 41.5629 32.856C42.2772 34.4756 42.9077 36.1309 43.452 37.8154C41.7192 38.2056 39.9672 38.5048 38.2031 38.7119C38.7984 37.7673 39.3746 36.8111 39.9316 35.8431ZM41.5395 27.2802C41.0207 26.2919 40.4812 25.3154 39.9211 24.3505C39.3742 23.399 38.8043 22.4591 38.2113 21.531C40.0055 21.7583 41.727 22.0607 43.3406 22.4298C42.8218 24.0758 42.2207 25.6946 41.5395 27.2802ZM30.027 14.6884C31.1971 15.9671 32.302 17.3039 33.3375 18.6939C31.1227 18.5884 28.9062 18.5884 26.6883 18.6939C27.7816 17.2478 28.9008 15.906 30.027 14.6884ZM17.0695 7.81889C18.9516 6.7267 23.1129 8.28764 27.4992 12.1865C27.7793 12.4361 28.0617 12.6974 28.343 12.9681C26.6172 14.8409 25.0176 16.8261 23.5547 18.9107C21.0296 19.1382 18.522 19.5296 16.0477 20.0826C15.9047 19.5076 15.7758 18.9287 15.6609 18.3458C14.6004 12.9283 15.3023 8.84428 17.0695 7.81889ZM14.3262 37.3326C13.8574 37.199 13.3945 37.054 12.9375 36.8978C10.1953 35.9603 7.93008 34.7369 6.375 33.4044C4.98281 32.2103 4.27734 31.0185 4.27734 30.0529C4.27734 28.0009 7.33125 25.3829 12.4242 23.6076C13.0641 23.3849 13.7094 23.1814 14.3602 22.997C15.1165 25.4278 16.0326 27.806 17.1023 30.1162C16.0198 32.4582 15.0925 34.8689 14.3262 37.3326ZM27.3492 48.3095C25.166 50.222 22.9793 51.5779 21.0516 52.2611C19.3195 52.874 17.9402 52.8915 17.107 52.4099C15.3328 51.3845 14.5945 47.4248 15.6012 42.1138C15.7207 41.4888 15.8574 40.8638 16.0113 40.2388C18.5104 40.7771 21.0432 41.1448 23.5922 41.3392C25.0694 43.4346 26.6822 45.4311 28.4203 47.3158C28.0711 47.6591 27.7137 47.9896 27.3492 48.3095ZM30.0937 45.5884C28.9547 44.3568 27.818 42.9939 26.7094 41.529C27.7867 41.5712 28.8836 41.5923 30 41.5923C31.1461 41.5923 32.2805 41.5677 33.3984 41.5173C32.3667 42.9296 31.2637 44.2884 30.0937 45.5884ZM44.6859 48.9388C44.3508 50.7482 43.677 51.9552 42.8438 52.438C41.0707 53.4669 37.2797 52.1298 33.1922 48.6037C32.7234 48.2005 32.2547 47.7681 31.7777 47.3146C33.482 45.4226 35.057 43.418 36.4922 41.3146C39.0553 41.0974 41.6004 40.7039 44.1094 40.1369C44.2242 40.6009 44.3258 41.0556 44.4141 41.5009C44.9777 44.3486 45.0586 46.9244 44.6859 48.9388ZM46.725 36.9107C46.418 37.0126 46.1016 37.1111 45.7805 37.2072C44.9937 34.7649 44.0419 32.3789 42.9316 30.0658C44.0003 27.7834 44.9148 25.4321 45.6691 23.0275C46.2445 23.1951 46.8035 23.3708 47.3414 23.5572C52.5469 25.3525 55.7227 28.0103 55.7227 30.0529C55.7227 32.2326 52.2926 35.0615 46.725 36.9107Z" fill="#D6D6D6"/>
<path d="M30 35.0873C30.9973 35.0905 31.9731 34.7977 32.804 34.246C33.6348 33.6943 34.2832 32.9084 34.6671 31.988C35.051 31.0675 35.1532 30.0538 34.9606 29.0752C34.768 28.0967 34.2894 27.1972 33.5853 26.4909C32.8813 25.7845 31.9834 25.303 31.0055 25.1072C30.0276 24.9114 29.0135 25.0102 28.0918 25.3912C27.1701 25.7721 26.3821 26.4179 25.8277 27.2469C25.2733 28.076 24.9773 29.0509 24.9773 30.0482C24.9759 30.7089 25.1048 31.3635 25.3565 31.9744C25.6082 32.5853 25.9779 33.1407 26.4443 33.6086C26.9108 34.0766 27.4649 34.4481 28.075 34.7018C28.6851 34.9555 29.3392 35.0865 30 35.0873Z" fill="#D6D6D6"/>
</svg>
