<svg width="60" height="63" viewBox="0 0 60 63" fill="none" xmlns="http://www.w3.org/2000/svg">
<path d="M35.0684 60.7068C33.4944 62.689 30.3029 61.6029 30.2649 59.0719L29.7104 22.0529H54.6019C59.1105 22.0529 61.625 27.2603 58.8215 30.7912L35.0684 60.7068Z" fill="#D6D6D6"/>
<path d="M35.0684 60.7068C33.4944 62.689 30.3029 61.6029 30.2649 59.0719L29.7104 22.0529H54.6019C59.1105 22.0529 61.625 27.2603 58.8215 30.7912L35.0684 60.7068Z" fill="url(#paint0_linear_6_317)" fill-opacity="0.2"/>
<path d="M24.9451 1.14002C26.5192 -0.842403 29.7107 0.243821 29.7487 2.77487L29.9917 39.7939H5.41164C0.902968 39.7939 -1.6116 34.5865 1.19203 31.0555L24.9451 1.14002Z" fill="#D6D6D6"/>
<defs>
<linearGradient id="paint0_linear_6_317" x1="19.9023" y1="16.8319" x2="29.9914" y2="35.8242" gradientUnits="userSpaceOnUse">
<stop/>
<stop offset="1" stopOpacity="0"/>
</linearGradient>
</defs>
</svg>
