<svg width="60" height="61" viewBox="0 0 60 61" fill="none" xmlns="http://www.w3.org/2000/svg">
<g clip-path="url(#clip0_6_308)">
<path d="M23.0777 1.2936C24.1756 2.38385 24.1756 4.15148 23.0778 5.24176C20.0846 8.21416 18.0808 14.2327 17.4413 20.6991C17.1302 23.845 17.1626 26.9123 17.4968 29.4933C17.5916 30.2258 17.7078 30.8953 17.8397 31.5003L36.4944 12.975C37.5923 11.8848 39.3724 11.8848 40.47 12.975C41.568 14.0653 41.568 15.8329 40.47 16.9232L18.7757 38.4672C18.1842 39.0544 17.36 39.3499 16.5272 39.2727C15.6942 39.1958 14.9392 38.7544 14.4671 38.0689C13.0784 36.0518 12.3047 33.1747 11.9202 30.2055C11.5248 27.1523 11.499 23.659 11.8457 20.1534C11.9311 19.2899 12.0404 18.4135 12.1751 17.5323C10.8476 19.3751 9.63447 21.2913 8.63689 23.2468C6.85358 26.7424 5.86377 30.1694 6.01223 33.3879C6.15679 36.5222 7.38784 39.6852 10.4807 42.7564C11.2261 43.4967 11.4918 44.5887 11.1691 45.5854L9.70471 50.1064L14.2569 48.6518C15.2606 48.3308 16.3605 48.5948 17.106 49.335C20.419 52.6253 23.7051 53.9325 26.8566 54.1185C30.0836 54.309 33.4634 53.3389 36.9019 51.5532C38.9235 50.5035 40.8938 49.2117 42.7853 47.7957C41.8061 47.9535 40.8308 48.0795 39.8696 48.1755C36.3591 48.525 32.8555 48.4913 29.7703 48.0717C26.7551 47.6614 23.8505 46.8443 21.7677 45.4133C21.082 44.9423 20.6423 44.1934 20.5672 43.3688C20.4922 42.5442 20.7897 41.7289 21.3792 41.1435L43.1194 19.554C44.2174 18.4638 45.9971 18.4638 47.0951 19.554C48.1931 20.6443 48.1931 22.412 47.0951 23.5022L28.3304 42.1369C28.992 42.2933 29.7272 42.4302 30.5336 42.5397C33.1226 42.8922 36.1773 42.9315 39.3086 42.6195C45.7226 41.9805 51.7339 39.9484 54.8209 36.8871L54.8258 36.8821C55.9238 35.7919 57.7039 35.7919 58.8015 36.8821C59.8995 37.9725 59.8995 39.7399 58.8015 40.8304C58.5536 41.0764 58.2979 41.3314 58.0343 41.5939C53.5958 46.0148 46.947 52.6373 39.5074 56.5009C35.5245 58.5694 31.1096 59.9629 26.5229 59.6922C22.3295 59.4447 18.2295 57.819 14.4026 54.4707L6.21233 57.0882C5.20879 57.4088 4.10892 57.1452 3.3634 56.4049C2.61788 55.6647 2.35206 54.5723 2.67485 53.5759L5.31154 45.435C2.09971 41.7653 0.585333 37.758 0.395557 33.6434C0.187531 29.133 1.57929 24.7261 3.62127 20.7234C7.67629 12.7748 14.7059 5.65924 19.0985 1.29707L19.102 1.29361C20.1999 0.203352 21.9799 0.20335 23.0777 1.2936Z" fill="#D6D6D6"/>
</g>
<defs>
<clipPath id="clip0_6_308">
<rect width="60" height="60" fill="white" transform="translate(0 0.100922)"/>
</clipPath>
</defs>
</svg>
