<svg width="60" height="61" viewBox="0 0 60 61" fill="none" xmlns="http://www.w3.org/2000/svg">
<g clip-path="url(#clip0_6_272)">
<path fill-rule="evenodd" clip-rule="evenodd" d="M0 0.100922H60V60.1009H0V0.100922ZM40 24.1009C35.5817 24.1009 32 27.6826 32 32.1009C32 36.5192 35.5817 40.1009 40 40.1009H44C46.2092 40.1009 48 41.8917 48 44.1009C48 46.3101 46.2092 48.1009 44 48.1009H40C37.7909 48.1009 36 46.3101 36 44.1009H32C32 48.5193 35.5817 52.1009 40 52.1009H44C48.4184 52.1009 52 48.5193 52 44.1009C52 39.6826 48.4184 36.1009 44 36.1009H40C37.7909 36.1009 36 34.31 36 32.1009C36 29.8918 37.7909 28.1009 40 28.1009H44.6668C46.5076 28.1009 48 29.5933 48 31.4342V32.1009H52V31.4342C52 27.3842 48.7168 24.1009 44.6668 24.1009H40ZM12 24.1009H32V28.1009H24V52.1009H20V28.1009H12V24.1009Z" fill="#D6D6D6"/>
</g>
<defs>
<clipPath id="clip0_6_272">
<rect width="60" height="60" fill="white" transform="translate(0 0.100922)"/>
</clipPath>
</defs>
</svg>
